<svg viewBox="0 0 200 200" xmlns="http://www.w3.org/2000/svg" role="img" aria-labelledby="t1">
  <title id="t1">Theatre consultancy icon — comedy and tragedy masks</title>
  <defs>
    <linearGradient id="g1" x1="0%" y1="0%" x2="100%" y2="100%">
      <stop offset="0%" stop-color="#F5D77A"/>
      <stop offset="100%" stop-color="#D4AF37"/>
    </linearGradient>
    <linearGradient id="g2" x1="0%" y1="0%" x2="100%" y2="100%">
      <stop offset="0%" stop-color="#E06D4D"/>
      <stop offset="100%" stop-color="#B33924"/>
    </linearGradient>
  </defs>
  <circle cx="100" cy="100" r="96" fill="#2A1910"/>
  <circle cx="100" cy="100" r="96" fill="none" stroke="#D4AF37" stroke-opacity="0.35" stroke-width="2"/>
  <g transform="translate(38,55)">
    <path d="M8,45 Q0,-10 65,-18 Q130,-10 122,45 Q122,100 65,108 Q8,100 8,45 Z" fill="url(#g2)"/>
    <path d="M35,42 Q48,30 60,42" stroke="#0D0D0D" stroke-width="5" fill="none" stroke-linecap="round"/>
    <path d="M75,42 Q88,30 100,42" stroke="#0D0D0D" stroke-width="5" fill="none" stroke-linecap="round"/>
    <path d="M38,80 Q65,58 92,80" stroke="#0D0D0D" stroke-width="6" fill="none" stroke-linecap="round"/>
  </g>
  <g transform="translate(78,80)">
    <path d="M8,45 Q0,-10 65,-18 Q130,-10 122,45 Q122,100 65,108 Q8,100 8,45 Z" fill="url(#g1)"/>
    <path d="M35,40 Q48,52 60,40" stroke="#4A291A" stroke-width="5" fill="none" stroke-linecap="round"/>
    <path d="M75,40 Q88,52 100,40" stroke="#4A291A" stroke-width="5" fill="none" stroke-linecap="round"/>
    <path d="M38,72 Q65,92 92,72" stroke="#4A291A" stroke-width="6" fill="none" stroke-linecap="round"/>
  </g>
</svg>
